<?xml version="1.0" encoding="utf-8"?>
<!-- Uploaded to: SVG Repo, www.svgrepo.com, Generator: SVG Repo Mixer Tools -->
<svg width="800px" height="800px" viewBox="0 0 1024 1024" class="icon"  version="1.1" xmlns="http://www.w3.org/2000/svg"><path d="M760.5 568.6l-37-46.9-162.5 128V421.8H449.9v306.3L301.1 606.8l-37.8 46.3 186.6 152.2v128H561V725.9z" fill="#D68231" /><path d="M301.1 606.8l-37.8 46.4 83.9 68.4c18.5-10.1 32.8-25.8 40.1-44.5l-86.2-70.3zM723.5 521.7l-88 69.3c6.3 19.2 19.9 35.5 37.9 46.3l87.2-68.7-37.1-46.9zM449.9 421.8v187.8c18.2 2.5 36.8 3.8 55.5 3.8 18.8 0 37.3-1.3 55.5-3.8V421.8h-111z" fill="" /><path d="M207.2 316a298.3 250.7 0 1 0 596.6 0 298.3 250.7 0 1 0-596.6 0Z" fill="#00AD68" /><path d="M648.4 545.1a93.6 84.8 0 1 0 187.2 0 93.6 84.8 0 1 0-187.2 0Z" fill="#7CDFA8" /><path d="M188.6 630a93.6 84.8 0 1 0 187.2 0 93.6 84.8 0 1 0-187.2 0Z" fill="#218649" /><path d="M648.1 921.9c0-10.3-8.4-18.7-18.7-18.7H381.5c-10.3 0-18.7 8.4-18.7 18.7v18.7c0 10.3 8.4 18.7 18.7 18.7h247.9c10.3 0 18.7-8.4 18.7-18.7v-18.7z" fill="#218649" /><path d="M377.8 391.3c-16.7-16.7-71.2-33.3-73.9-30.5-2.8 2.8 13.8 57.2 30.5 73.9 16.7 16.7 40 20.5 52 8.5 11.9-11.9 8.1-35.2-8.6-51.9z" fill="#7CDFA8" /><path d="M616.2 414.6c16.7-16.7 33.3-71.2 30.5-73.9-2.8-2.8-57.2 13.8-73.9 30.5-16.7 16.7-20.5 40-8.5 52 11.9 11.9 35.2 8.1 51.9-8.6zM471.1 220.7c0-23.6-26.8-73.9-30.7-73.9-3.9 0-30.7 50.2-30.7 73.9s13.7 42.8 30.7 42.8 30.7-19.2 30.7-42.8z" fill="#218649" /><path d="M681.1 267.6c16.7-16.7 33.3-71.2 30.5-73.9-2.8-2.8-57.2 13.8-73.9 30.5-16.7 16.7-20.5 40-8.5 52 11.9 11.9 35.2 8.1 51.9-8.6z" fill="#7CDFA8" /></svg>